<?xml version="1.0" encoding="UTF-8" standalone="no"?>
<svg xmlns="http://www.w3.org/2000/svg" width="200" height="200" viewBox="0 0 200 200">
  <rect width="200" height="200" fill="#4a6fa5"/>
  <circle cx="100" cy="100" r="70" fill="#ff8866"/>
  <ellipse cx="70" cy="80" rx="7" ry="3" fill="#000"/>
  <ellipse cx="130" cy="80" rx="7" ry="3" fill="#000"/>
  <path d="M60 135 Q100 105 140 135" stroke="#000" stroke-width="5" fill="none"/>
  <path d="M50 60 Q100 20 150 60" stroke="#000" stroke-width="4" fill="none"/>
  
  <!-- Sweat drops - more of them -->
  <path d="M50 70 L45 90" stroke="#99ccff" stroke-width="3" fill="none"/>
  <circle cx="45" cy="95" r="5" fill="#99ccff"/>
  
  <path d="M70 60 L65 80" stroke="#99ccff" stroke-width="3" fill="none"/>
  <circle cx="65" cy="85" r="5" fill="#99ccff"/>
  
  <path d="M150 70 L155 90" stroke="#99ccff" stroke-width="3" fill="none"/>
  <circle cx="155" cy="95" r="5" fill="#99ccff"/>
  
  <path d="M130 60 L135 80" stroke="#99ccff" stroke-width="3" fill="none"/>
  <circle cx="135" cy="85" r="5" fill="#99ccff"/>
  
  <path d="M100 40 L100 60" stroke="#99ccff" stroke-width="3" fill="none"/>
  <circle cx="100" cy="65" r="5" fill="#99ccff"/>
  
  <!-- Blush marks -->
  <ellipse cx="70" cy="110" rx="15" ry="10" fill="#ff6666" opacity="0.7"/>
  <ellipse cx="130" cy="110" rx="15" ry="10" fill="#ff6666" opacity="0.7"/>
  
  <text x="100" y="30" font-family="Arial" font-size="18" text-anchor="middle" fill="white">CRITICAL</text>
</svg>
